# xmcd
#
# Track frame offsets:
#	150
#	20657
#	39082
#	59577
#
# Disc length: 1036
#
# Revision: 1
# Processed by: cddbd v1.5.1PL0 Copyright (c) Steve Scherf et al.
# Submitted via: CDex 1.40Release
# Normalized: r0:TRMNUM
#
DISCID=2c040a04
DTITLE=清く正しく行こう  - LINDBERG
DYEAR=1900
DGENRE=J-POP
TTITLE0=　清く正しく行こう
TTITLE1=　Cute or Beauty
TTITLE2=　清く正しく行こう （オリジナル・カラオケ）
TTITLE3=　Cute or Beauty （オリジナル・カラオケ）
EXTD=
EXTT0=
EXTT1=
EXTT2=
EXTT3=
PLAYORDER=
